<svg width="88" height="88" viewBox="0 0 88 88" fill="none" xmlns="http://www.w3.org/2000/svg">
<path d="M17.4482 21.2412C18.4542 21.2412 19.4195 20.8412 20.1309 20.1299C20.8419 19.4186 21.2412 18.454 21.2412 17.4482V3.79297C21.2412 2.7872 20.8419 1.82262 20.1309 1.11133C19.4195 0.399983 18.4542 0 17.4482 0H3.79297C2.78702 3.58159e-05 1.82264 0.400015 1.11133 1.11133C0.400022 1.82266 1.06231e-05 2.78701 0 3.79297V17.4482C1.5611e-05 18.4542 0.400021 19.4186 1.11133 20.1299C1.82264 20.8412 2.78702 21.2412 3.79297 21.2412H17.4482ZM26.5518 3.03418C26.9707 3.03418 27.3105 2.69437 27.3105 2.27539V0.758789C27.3105 0.339814 26.9707 0 26.5518 0H25.0352C24.6162 0 24.2764 0.339814 24.2764 0.758789V2.27539C24.2764 2.69437 24.6162 3.03418 25.0352 3.03418H26.5518ZM66 3.03418C66.4188 3.03403 66.7588 2.69427 66.7588 2.27539V0.758789C66.7588 0.339908 66.4188 0.000151247 66 0H64.4824C64.0635 3.06681e-05 63.7236 0.339833 63.7236 0.758789V2.27539C63.7236 2.69435 64.0635 3.03415 64.4824 3.03418H66ZM68.2754 54.2412C68.5772 54.2412 68.8667 54.1206 69.0801 53.9072C69.2935 53.6938 69.4141 53.4043 69.4141 53.1025V51.2061H71.3105C71.6122 51.206 71.9019 51.0864 72.1152 50.873C72.3285 50.6597 72.4482 50.3701 72.4482 50.0684V48.1719H74.3447C74.6465 48.1719 74.936 48.0522 75.1494 47.8389C75.3628 47.6255 75.4824 47.3359 75.4824 47.0342V45.1377H80.4141C80.7157 45.1376 81.0054 45.017 81.2188 44.8037C81.4319 44.5903 81.5518 44.3006 81.5518 43.999V36.0342H86.4824C86.7842 36.0342 87.0737 35.9136 87.2871 35.7002C87.5003 35.4869 87.62 35.198 87.6201 34.8965V31.8613C87.6201 31.5596 87.5005 31.27 87.2871 31.0566C87.0737 30.8434 86.7841 30.7236 86.4824 30.7236C86.1807 30.7237 85.8911 30.8433 85.6777 31.0566C85.4644 31.27 85.3448 31.5596 85.3447 31.8613V33.7578H80.4141C80.1123 33.7578 79.8228 33.8784 79.6094 34.0918C79.396 34.3052 79.2754 34.5947 79.2754 34.8965V36.793H77.3789C77.0772 36.793 76.7876 36.9126 76.5742 37.126C76.361 37.3394 76.2412 37.629 76.2412 37.9307C76.2413 38.2324 76.3609 38.522 76.5742 38.7354C76.7876 38.9487 77.0772 39.0683 77.3789 39.0684H79.2754V42.8613H75.4824V40.9648C75.4824 40.6631 75.3628 40.3735 75.1494 40.1602C74.936 39.9468 74.6465 39.8272 74.3447 39.8271H72.4482V36.0342H74.3447C74.6465 36.0342 74.936 35.9136 75.1494 35.7002C75.3625 35.4869 75.4823 35.198 75.4824 34.8965V32.999H77.3789C77.6807 32.999 77.9702 32.8794 78.1836 32.666C78.397 32.4526 78.5176 32.1631 78.5176 31.8613C78.5175 31.5596 78.397 31.27 78.1836 31.0566C77.9702 30.8434 77.6806 30.7236 77.3789 30.7236H75.4824V23.8965H77.3789C77.6807 23.8965 77.9702 23.7759 78.1836 23.5625C78.397 23.3491 78.5176 23.0596 78.5176 22.7578V20.8613H80.4141C80.7157 20.8612 81.0054 20.7416 81.2188 20.5283C81.432 20.3149 81.5517 20.0253 81.5518 19.7236C81.5518 19.4219 81.432 19.1323 81.2188 18.9189C81.0054 18.7056 80.7157 18.586 80.4141 18.5859H75.4824V14.793H77.3789C77.6807 14.793 77.9702 14.6724 78.1836 14.459C78.397 14.2456 78.5176 13.9561 78.5176 13.6543V11.7578H80.4141C80.7157 11.7577 81.0054 11.6381 81.2188 11.4248C81.432 11.2114 81.5518 10.9218 81.5518 10.6201V8.72363H83.4482C83.75 8.7236 84.0396 8.60395 84.2529 8.39062C84.4663 8.17729 84.5859 7.88763 84.5859 7.58594C84.5859 7.28423 84.4662 6.99463 84.2529 6.78125C84.0396 6.56787 83.75 6.44729 83.4482 6.44727H81.5518V1.5166C81.5517 1.21491 81.432 0.925282 81.2188 0.711914C81.0054 0.498608 80.7157 0.379015 80.4141 0.378906H74.3447C74.043 0.378906 73.7534 0.498553 73.54 0.711914C73.3267 0.925297 73.2071 1.21483 73.207 1.5166C73.207 1.81839 73.3266 2.10789 73.54 2.32129C73.7534 2.53469 74.0429 2.6543 74.3447 2.6543H76.2412V6.44727H72.4482V4.55078C72.4481 4.24912 72.3285 3.95941 72.1152 3.74609C71.9019 3.53279 71.6122 3.41318 71.3105 3.41309H68.2754C67.9737 3.41317 67.684 3.53279 67.4707 3.74609C67.2574 3.95941 67.1378 4.24912 67.1377 4.55078V7.58594C67.1378 7.88762 67.2574 8.17729 67.4707 8.39062C67.684 8.60395 67.9737 8.72355 68.2754 8.72363H70.1719V12.5166H66.3789V10.6201C66.3789 10.3183 66.2593 10.0288 66.0459 9.81543C65.8325 9.60204 65.543 9.48242 65.2412 9.48242H63.3447V7.58594C63.3447 7.28427 63.2249 6.99463 63.0117 6.78125C62.7984 6.56791 62.5087 6.44734 62.207 6.44727H59.1719C58.8702 6.44737 58.5805 6.56794 58.3672 6.78125C58.154 6.99462 58.0342 7.2843 58.0342 7.58594C58.0343 7.88761 58.1539 8.17729 58.3672 8.39062C58.5805 8.60394 58.8702 8.72353 59.1719 8.72363H61.0684V12.5166H59.1719C58.8702 12.5167 58.5805 12.6363 58.3672 12.8496C58.1539 13.0629 58.0343 13.3526 58.0342 13.6543V15.5508H56.1377C55.8359 15.5508 55.5464 15.6714 55.333 15.8848C55.1197 16.0981 55 16.3878 55 16.6895V18.5859H53.1035C52.8018 18.5859 52.5122 18.7056 52.2988 18.9189C52.0854 19.1323 51.9658 19.4218 51.9658 19.7236C51.9658 20.0254 52.0854 20.3149 52.2988 20.5283C52.5122 20.7416 52.8018 20.8613 53.1035 20.8613H61.0684V25.793C61.0685 26.0946 61.189 26.3844 61.4023 26.5977C61.6157 26.8108 61.9054 26.9307 62.207 26.9307H64.1035V28.8271C64.1035 29.1289 64.2231 29.4185 64.4365 29.6318C64.6499 29.8452 64.9394 29.9648 65.2412 29.9648C65.543 29.9648 65.8325 29.8452 66.0459 29.6318C66.2593 29.4185 66.3789 29.1289 66.3789 28.8271V26.9307H73.207V33.7578H69.4141V31.8613C69.414 31.5596 69.2934 31.27 69.0801 31.0566C68.8667 30.8434 68.5771 30.7236 68.2754 30.7236C67.9737 30.7237 67.684 30.8433 67.4707 31.0566C67.2574 31.27 67.1377 31.5596 67.1377 31.8613V33.7578H60.3105V28.8271C60.3105 28.5254 60.19 28.2359 59.9766 28.0225C59.7632 27.8091 59.4736 27.6895 59.1719 27.6895C58.8702 27.6896 58.5805 27.8092 58.3672 28.0225C58.1539 28.2358 58.0342 28.5255 58.0342 28.8271V40.9648C58.0342 41.2665 58.1539 41.5562 58.3672 41.7695C58.5805 41.9828 58.8702 42.1024 59.1719 42.1025C59.4736 42.1025 59.7632 41.9829 59.9766 41.7695C60.19 41.5561 60.3105 41.2666 60.3105 40.9648V36.0342H70.1719V39.8271H65.2412C64.9394 39.8272 64.6499 39.9468 64.4365 40.1602C64.2231 40.3735 64.1035 40.6631 64.1035 40.9648C64.1035 41.2666 64.2232 41.5561 64.4365 41.7695C64.6499 41.9829 64.9394 42.1025 65.2412 42.1025H70.1719V45.8965H68.2754C67.9737 45.8966 67.684 46.0162 67.4707 46.2295C67.2575 46.4429 67.1377 46.7325 67.1377 47.0342V53.1025C67.1377 53.4042 67.2575 53.6939 67.4707 53.9072C67.684 54.1206 67.9737 54.2411 68.2754 54.2412ZM28.8271 36.0342C29.1289 36.0342 29.4184 35.9145 29.6318 35.7012C29.8452 35.4878 29.9658 35.1983 29.9658 34.8965V31.8623C29.9658 31.5605 29.8452 31.271 29.6318 31.0576C29.4184 30.8443 29.1289 30.7246 28.8271 30.7246H26.9307V26.9316H33.7588V28.8281C33.7589 29.1298 33.8785 29.4195 34.0918 29.6328C34.3052 29.8461 34.5948 29.9658 34.8965 29.9658H40.9658C41.2675 29.9657 41.5572 29.8461 41.7705 29.6328C41.9838 29.4195 42.1034 29.1298 42.1035 28.8281C42.1035 28.5265 41.9837 28.2368 41.7705 28.0234C41.5572 27.8101 41.2675 27.6896 40.9658 27.6895H36.0342V25.793C36.0341 25.4913 35.9145 25.2016 35.7012 24.9883C35.4878 24.775 35.1982 24.6553 34.8965 24.6553H33V20.8623H34.8965C35.1982 20.8623 35.4878 20.7426 35.7012 20.5293C35.9145 20.316 36.0341 20.0263 36.0342 19.7246V14.793H42.8623V16.6895C42.8623 16.9912 42.982 17.2807 43.1953 17.4941C43.4087 17.7075 43.6982 17.8281 44 17.8281C44.3018 17.8281 44.5913 17.7075 44.8047 17.4941C45.0179 17.2808 45.1377 16.9911 45.1377 16.6895V14.793H47.0342C47.3359 14.793 47.6255 14.6733 47.8389 14.46C48.0523 14.2466 48.1719 13.9571 48.1719 13.6553V11.7588H50.0693C50.3708 11.7587 50.6598 11.6388 50.873 11.4258C51.0864 11.2124 51.207 10.9228 51.207 10.6211V2.65527H53.1035C53.4052 2.65523 53.6948 2.53562 53.9082 2.32227C54.1216 2.10891 54.2412 1.81931 54.2412 1.51758C54.2412 1.21587 54.1215 0.926276 53.9082 0.712891C53.6948 0.49953 53.4052 0.379931 53.1035 0.379883H40.9658C40.6641 0.379883 40.3745 0.499559 40.1611 0.712891C39.9477 0.926294 39.8271 1.21578 39.8271 1.51758V3.41406H36.0342V1.51758C36.0342 1.21584 35.9145 0.926283 35.7012 0.712891C35.4878 0.499499 35.1983 0.379896 34.8965 0.379883H31.8623C31.5605 0.379883 31.271 0.499538 31.0576 0.712891C30.8442 0.926294 30.7236 1.21578 30.7236 1.51758V6.44824H28.8271C28.5255 6.44833 28.2358 6.56795 28.0225 6.78125C27.8092 6.99456 27.6896 7.28429 27.6895 7.58594C27.6895 7.88756 27.8093 8.17726 28.0225 8.39062C28.2358 8.60395 28.5255 8.72452 28.8271 8.72461H30.7236V10.6211C30.7237 10.9228 30.8443 11.2124 31.0576 11.4258C31.271 11.639 31.5607 11.7588 31.8623 11.7588H33.7588V15.5518H29.9658V13.6553C29.9658 13.3535 29.8452 13.064 29.6318 12.8506C29.4184 12.6373 29.1289 12.5176 28.8271 12.5176C28.5255 12.5177 28.2358 12.6373 28.0225 12.8506C27.8092 13.064 27.6895 13.3536 27.6895 13.6553V16.6895C27.6895 16.9911 27.8093 17.2808 28.0225 17.4941C28.2358 17.7075 28.5255 17.828 28.8271 17.8281H30.7236V24.6553H26.9307V22.7588C26.9307 22.457 26.8111 22.1675 26.5977 21.9541C26.3843 21.7407 26.0948 21.6211 25.793 21.6211C25.4912 21.6211 25.2017 21.7407 24.9883 21.9541C24.7749 22.1675 24.6553 22.457 24.6553 22.7588V24.6553H16.6895C16.3877 24.6553 16.0981 24.775 15.8848 24.9883C15.6714 25.2016 15.5518 25.4913 15.5518 25.793C15.5518 26.0947 15.6715 26.3843 15.8848 26.5977C16.0981 26.811 16.3877 26.9316 16.6895 26.9316H24.6553V31.8623C24.6553 32.1641 24.7749 32.4536 24.9883 32.667C25.2017 32.8804 25.4912 33 25.793 33H27.6895V34.8965C27.6895 35.1982 27.8092 35.4878 28.0225 35.7012C28.2358 35.9145 28.5255 36.0341 28.8271 36.0342ZM3.79297 18.207C3.59182 18.207 3.39907 18.1266 3.25684 17.9844C3.1146 17.8421 3.0342 17.6494 3.03418 17.4482V3.79297C3.03419 3.59181 3.11461 3.39909 3.25684 3.25684C3.39907 3.1146 3.59182 3.03422 3.79297 3.03418H17.4482C17.6494 3.03418 17.8421 3.11459 17.9844 3.25684C18.1266 3.3991 18.207 3.59178 18.207 3.79297V17.4482C18.207 17.6494 18.1266 17.8421 17.9844 17.9844C17.8421 18.1266 17.6494 18.207 17.4482 18.207H3.79297ZM87.2412 6.06836C87.6601 6.06836 87.9998 5.72936 88 5.31055V3.79297C88 3.37399 87.6602 3.03418 87.2412 3.03418H85.7246C85.3056 3.03418 84.9658 3.37399 84.9658 3.79297V5.31055C84.966 5.72936 85.3058 6.06836 85.7246 6.06836H87.2412ZM36.0342 10.6211C36.0342 10.3194 35.9145 10.0298 35.7012 9.81641C35.4878 9.60301 35.1983 9.48243 34.8965 9.48242H33V5.68945H36.793V7.58594C36.793 7.88758 36.9128 8.17725 37.126 8.39062C37.3393 8.60397 37.629 8.72454 37.9307 8.72461C38.2325 8.72461 38.5219 8.60403 38.7354 8.39062C38.9487 8.17723 39.0693 7.8877 39.0693 7.58594V5.68945H45.8965V9.48242H44C43.6982 9.48242 43.4087 9.603 43.1953 9.81641C42.982 10.0298 42.8623 10.3193 42.8623 10.6211V12.5176H36.0342V10.6211ZM14.4141 15.1719C14.6151 15.1718 14.808 15.0924 14.9502 14.9502C15.0924 14.808 15.1728 14.6151 15.1729 14.4141V6.82715C15.1728 6.62607 15.0924 6.4332 14.9502 6.29102C14.808 6.14883 14.6151 6.06941 14.4141 6.06934H6.82715C6.62611 6.06945 6.43318 6.14885 6.29102 6.29102C6.14886 6.4332 6.06943 6.6261 6.06934 6.82715V14.4141C6.06943 14.6151 6.14886 14.808 6.29102 14.9502C6.43318 15.0924 6.62611 15.1718 6.82715 15.1719H14.4141ZM72.4482 8.72363H76.2412V12.5166H72.4482V8.72363ZM56.8965 12.1377C57.3155 12.1377 57.6553 11.7979 57.6553 11.3789V9.86133C57.655 9.44255 57.3153 9.10352 56.8965 9.10352H55.3789C54.9602 9.10371 54.6213 9.44267 54.6211 9.86133V11.3789C54.6211 11.7978 54.9601 12.1375 55.3789 12.1377H56.8965ZM86.4824 17.8281C86.7842 17.8281 87.0737 17.7075 87.2871 17.4941C87.5005 17.2807 87.6201 16.9912 87.6201 16.6895V10.6211C87.6201 10.3193 87.5005 10.0298 87.2871 9.81641C87.0737 9.603 86.7842 9.4834 86.4824 9.4834C86.1807 9.48346 85.8911 9.60306 85.6777 9.81641C85.4645 10.0298 85.3447 10.3194 85.3447 10.6211V16.6895C85.3447 16.9911 85.4645 17.2808 85.6777 17.4941C85.8911 17.7075 86.1807 17.8281 86.4824 17.8281ZM63.3447 14.793H73.207V24.6543H63.3447V14.793ZM50.8281 18.207C51.2469 18.2068 51.5859 17.8671 51.5859 17.4482V15.9307C51.5857 15.512 51.2468 15.1731 50.8281 15.1729H49.3105C48.8917 15.1729 48.5519 15.5119 48.5518 15.9307V17.4482C48.5518 17.8672 48.8916 18.207 49.3105 18.207H50.8281ZM69.0342 21.2412C69.4532 21.2412 69.793 20.9014 69.793 20.4824V18.9658C69.793 18.5468 69.4532 18.207 69.0342 18.207H67.5176C67.0986 18.207 66.7588 18.5468 66.7588 18.9658V20.4824C66.7588 20.9014 67.0986 21.2412 67.5176 21.2412H69.0342ZM47.0342 26.9307C47.3359 26.9307 47.6255 26.811 47.8389 26.5977C48.0523 26.3843 48.1729 26.0948 48.1729 25.793V19.7236C48.1727 19.422 48.0522 19.1322 47.8389 18.9189C47.6255 18.7058 47.3358 18.5859 47.0342 18.5859C46.7325 18.586 46.4428 18.7056 46.2295 18.9189C46.0162 19.1322 45.8966 19.422 45.8965 19.7236V21.6211H44C43.6982 21.6211 43.4087 21.7407 43.1953 21.9541C42.982 22.1675 42.8623 22.4571 42.8623 22.7588V25.793C42.8623 26.0947 42.982 26.3843 43.1953 26.5977C43.4087 26.811 43.6982 26.9306 44 26.9307H47.0342ZM53.8623 27.3105C54.2812 27.3104 54.6211 26.9707 54.6211 26.5518V25.0352C54.6211 24.6162 54.2812 24.2765 53.8623 24.2764H52.3447C51.9258 24.2764 51.5859 24.6162 51.5859 25.0352V26.5518C51.5859 26.9707 51.9258 27.3105 52.3447 27.3105H53.8623ZM16.6895 42.1035C16.9912 42.1035 17.2808 41.9838 17.4941 41.7705C17.7075 41.5572 17.8271 41.2675 17.8271 40.9658V39.0693H22.7588C23.0605 39.0692 23.3502 38.9487 23.5635 38.7354C23.7767 38.522 23.8965 38.2323 23.8965 37.9307V34.8965C23.8965 34.5948 23.7768 34.3052 23.5635 34.0918C23.3502 33.8785 23.0605 33.7589 22.7588 33.7588C22.4571 33.7588 22.1675 33.8785 21.9541 34.0918C21.7407 34.3052 21.6201 34.5947 21.6201 34.8965V36.793H14.793V33H19.7236C20.0253 33 20.3149 32.8802 20.5283 32.667C20.7417 32.4536 20.8622 32.164 20.8623 31.8623C20.8623 31.5605 20.7417 31.271 20.5283 31.0576C20.3149 30.8442 20.0254 30.7246 19.7236 30.7246H8.72363V28.8271C8.72352 28.5255 8.60393 28.2358 8.39062 28.0225C8.17725 27.8092 7.88761 27.6895 7.58594 27.6895C7.28425 27.6895 6.99462 27.8092 6.78125 28.0225C6.56795 28.2358 6.44836 28.5255 6.44824 28.8271V30.7246H2.65527V25.793C2.65524 25.4912 2.53466 25.2017 2.32129 24.9883C2.10791 24.7751 1.81826 24.6553 1.5166 24.6553C1.21512 24.6554 0.926155 24.7752 0.712891 24.9883C0.499516 25.2017 0.378939 25.4912 0.378906 25.793V34.8965C0.378906 35.1983 0.499487 35.4878 0.712891 35.7012C0.926164 35.9143 1.21508 36.0341 1.5166 36.0342H4.55176C4.85348 36.0341 5.14309 35.9145 5.35645 35.7012C5.56976 35.4878 5.68945 35.1982 5.68945 34.8965V33H12.5166V36.793H7.58594C7.28424 36.793 6.99462 36.9127 6.78125 37.126C6.56793 37.3393 6.44834 37.629 6.44824 37.9307V40.9658C6.44832 41.2675 6.56792 41.5572 6.78125 41.7705C6.99462 41.9838 7.28422 42.1035 7.58594 42.1035C7.88764 42.1035 8.17724 41.9838 8.39062 41.7705C8.60395 41.5572 8.72355 41.2675 8.72363 40.9658V39.0693H12.5166V40.9658C12.5167 41.2675 12.6373 41.5572 12.8506 41.7705C13.064 41.9837 13.3536 42.1035 13.6553 42.1035H16.6895ZM86.4824 26.9307C86.7841 26.9307 87.0737 26.811 87.2871 26.5977C87.5005 26.3843 87.6211 26.0948 87.6211 25.793C87.6211 25.4912 87.5005 25.2017 87.2871 24.9883C87.0737 24.775 86.7841 24.6553 86.4824 24.6553H80.4141C80.1123 24.6553 79.8228 24.775 79.6094 24.9883C79.396 25.2017 79.2764 25.4912 79.2764 25.793C79.2764 26.0948 79.396 26.3843 79.6094 26.5977C79.8228 26.811 80.1123 26.9307 80.4141 26.9307H86.4824ZM50.9033 54.6211C53.1337 54.6211 54.6211 53.1337 54.6211 50.9033V37.0967C54.6211 34.8663 53.1337 33.3789 50.9033 33.3789H37.0967C34.8663 33.3789 33.3789 34.8663 33.3789 37.0967V50.9033C33.3789 53.1337 34.8663 54.6211 37.0967 54.6211H50.9033ZM38.6895 50.3721C38.0524 50.372 37.628 49.9476 37.6279 49.3105V38.6895C37.628 38.0524 38.0524 37.628 38.6895 37.6279H49.3105C49.9477 37.628 50.372 38.0523 50.3721 38.6895V49.3105C50.372 49.9476 49.9476 50.372 49.3105 50.3721H38.6895ZM2.27539 42.4824C2.69437 42.4824 3.03418 42.1426 3.03418 41.7236V40.207C3.03418 39.7881 2.69437 39.4482 2.27539 39.4482H0.758789C0.339814 39.4482 0 39.7881 0 40.207V41.7236C0 42.1426 0.339814 42.4824 0.758789 42.4824H2.27539ZM87.2412 42.4824C87.6602 42.4824 88 42.1426 88 41.7236V40.207C88 39.7881 87.6602 39.4482 87.2412 39.4482H85.7246C85.3056 39.4482 84.9658 39.7881 84.9658 40.207V41.7236C84.9658 42.1426 85.3056 42.4824 85.7246 42.4824H87.2412ZM25.793 48.1719C26.0947 48.1719 26.3843 48.0522 26.5977 47.8389C26.811 47.6255 26.9306 47.3359 26.9307 47.0342V45.1377H28.8271C29.1288 45.1377 29.4185 45.0179 29.6318 44.8047C29.8451 44.5914 29.9647 44.3017 29.9648 44V40.9648C29.9648 40.6631 29.8452 40.3735 29.6318 40.1602C29.4185 39.9469 29.1288 39.8271 28.8271 39.8271H25.793C25.4913 39.8271 25.2017 39.9469 24.9883 40.1602C24.7749 40.3735 24.6553 40.6631 24.6553 40.9648V42.8613H19.7236C19.4219 42.8614 19.1323 42.982 18.9189 43.1953C18.7058 43.4087 18.5859 43.6984 18.5859 44C18.586 44.3017 18.7056 44.5914 18.9189 44.8047C19.1323 45.018 19.422 45.1376 19.7236 45.1377H21.6201V47.0342C21.6201 47.3359 21.7407 47.6255 21.9541 47.8389C22.1675 48.0521 22.4571 48.1719 22.7588 48.1719H25.793ZM46.124 46.6553C46.3895 46.6553 46.6553 46.3895 46.6553 46.124V41.876C46.6553 41.6105 46.3895 41.3447 46.124 41.3447H41.876C41.6105 41.3447 41.3447 41.6105 41.3447 41.876V46.124C41.3447 46.3895 41.6105 46.6553 41.876 46.6553H46.124ZM50.0693 81.5518C50.371 81.5517 50.6607 81.4311 50.874 81.2178C51.0872 81.0044 51.207 80.7147 51.207 80.4131V78.5166H56.1377C56.4394 78.5166 56.729 78.3969 56.9424 78.1836C57.1558 77.9702 57.2754 77.6807 57.2754 77.3789V75.4824H62.207C62.5088 75.4824 62.7984 75.3628 63.0117 75.1494C63.2251 74.9361 63.3447 74.6464 63.3447 74.3447V65.2412C63.3447 64.9395 63.225 64.6499 63.0117 64.4365C62.7983 64.2231 62.5088 64.1035 62.207 64.1035H60.3105V60.3096H64.1035V62.207C64.1036 62.5085 64.2234 62.7975 64.4365 63.0107C64.6499 63.2241 64.9395 63.3447 65.2412 63.3447H68.2754C68.5772 63.3447 68.8667 63.2241 69.0801 63.0107C69.2934 62.7975 69.4139 62.5087 69.4141 62.207C69.4141 61.9052 69.2935 61.6157 69.0801 61.4023C68.8667 61.1889 68.5772 61.0684 68.2754 61.0684H66.3789V56.1377C66.3789 55.8359 66.2593 55.5464 66.0459 55.333C65.8325 55.1196 65.543 55 65.2412 55H63.3447V44C63.3447 43.6983 63.225 43.4087 63.0117 43.1953C62.7983 42.9819 62.5088 42.8614 62.207 42.8613C61.9052 42.8613 61.6157 42.9819 61.4023 43.1953C61.189 43.4087 61.0693 43.6983 61.0693 44V45.8965H59.1729C58.8711 45.8965 58.5815 46.0162 58.3682 46.2295C58.1548 46.4429 58.0342 46.7324 58.0342 47.0342C58.0342 47.336 58.1548 47.6255 58.3682 47.8389C58.5815 48.0521 58.8712 48.1719 59.1729 48.1719H61.0693V58.0342H56.1377C55.836 58.0342 55.5464 58.1538 55.333 58.3672C55.1197 58.5805 55.0001 58.8702 55 59.1719C55 59.4736 55.1197 59.7632 55.333 59.9766C55.5464 60.1899 55.836 60.3095 56.1377 60.3096H58.0342V65.2412C58.0342 65.5429 58.1548 65.8325 58.3682 66.0459C58.5815 66.2591 58.8712 66.3789 59.1729 66.3789H61.0693V73.207H54.2412V71.3096C54.2411 71.0079 54.1215 70.7182 53.9082 70.5049C53.6948 70.2916 53.4052 70.1719 53.1035 70.1719H51.207V68.2754C51.207 67.9737 51.0873 67.6841 50.874 67.4707C50.6607 67.2574 50.371 67.1378 50.0693 67.1377C49.7677 67.1377 49.478 67.2575 49.2646 67.4707C49.0513 67.6841 48.9307 67.9736 48.9307 68.2754V76.2412H47.0342C46.7325 76.2413 46.4428 76.3609 46.2295 76.5742C46.0162 76.7876 45.8965 77.0772 45.8965 77.3789C45.8965 77.6806 46.0162 77.9702 46.2295 78.1836C46.4428 78.3969 46.7325 78.5165 47.0342 78.5166H48.9307V80.4131C48.9307 80.7149 49.0512 81.0044 49.2646 81.2178C49.4781 81.4312 49.7675 81.5518 50.0693 81.5518ZM19.7246 57.2764C20.0263 57.2763 20.316 57.1557 20.5293 56.9424C20.7425 56.729 20.8623 56.4393 20.8623 56.1377C20.8622 55.836 20.7426 55.5463 20.5293 55.333C20.316 55.1197 20.0263 55.0001 19.7246 55H17.8271V51.207H19.7246C20.0263 51.2069 20.316 51.0873 20.5293 50.874C20.7426 50.6607 20.8622 50.371 20.8623 50.0693C20.8623 49.7677 20.7425 49.478 20.5293 49.2646C20.316 49.0513 20.0263 48.9308 19.7246 48.9307H17.8271V47.0342C17.8271 46.7325 17.7075 46.4428 17.4941 46.2295C17.2808 46.0163 16.9911 45.8965 16.6895 45.8965H11.7588V44C11.7588 43.6983 11.6391 43.4087 11.4258 43.1953C11.2125 42.982 10.9228 42.8624 10.6211 42.8623C10.3194 42.8623 10.0298 42.982 9.81641 43.1953C9.60302 43.4087 9.48244 43.6982 9.48242 44V47.0342C9.48242 47.336 9.603 47.6255 9.81641 47.8389C10.0298 48.0523 10.3193 48.1729 10.6211 48.1729H15.5518V55H13.6553C13.3536 55 13.064 55.1197 12.8506 55.333C12.6373 55.5463 12.5177 55.836 12.5176 56.1377C12.5176 56.4394 12.6373 56.729 12.8506 56.9424C13.064 57.1558 13.3535 57.2764 13.6553 57.2764H19.7246ZM86.4824 51.2061C86.7842 51.2061 87.0737 51.0864 87.2871 50.873C87.5005 50.6596 87.6211 50.3702 87.6211 50.0684V47.0342C87.6211 46.7324 87.5005 46.4429 87.2871 46.2295C87.0737 46.0161 86.7842 45.8965 86.4824 45.8965H83.4482C83.1464 45.8965 82.857 46.0161 82.6436 46.2295C82.4302 46.4429 82.3105 46.7324 82.3105 47.0342C82.3106 47.3359 82.4302 47.6255 82.6436 47.8389C82.8569 48.0522 83.1465 48.1719 83.4482 48.1719H85.3447V50.0684C85.3447 50.3701 85.4645 50.6597 85.6777 50.873C85.8911 51.0864 86.1807 51.206 86.4824 51.2061ZM2.27539 51.5859C2.69437 51.5859 3.03418 51.2461 3.03418 50.8271V49.3105C3.03418 48.8916 2.69437 48.5518 2.27539 48.5518H0.758789C0.339814 48.5518 0 48.8916 0 49.3105V50.8271C0 51.2461 0.339814 51.5859 0.758789 51.5859H2.27539ZM8.34473 51.5859C8.76368 51.5859 9.10352 51.2461 9.10352 50.8271V49.3105C9.10352 48.8916 8.76368 48.5518 8.34473 48.5518H6.82715C6.4083 48.5519 6.06836 48.8917 6.06836 49.3105V50.8271C6.06836 51.246 6.4083 51.5858 6.82715 51.5859H8.34473ZM29.5859 51.5859C30.0049 51.5859 30.3447 51.2461 30.3447 50.8271V49.3105C30.3447 48.8916 30.0049 48.5518 29.5859 48.5518H28.0693C27.6504 48.5518 27.3105 48.8916 27.3105 49.3105V50.8271C27.3105 51.2461 27.6504 51.5859 28.0693 51.5859H29.5859ZM1.5166 63.3447C1.81834 63.3447 2.1079 63.225 2.32129 63.0117C2.53469 62.7983 2.65527 62.5088 2.65527 62.207V57.2764H6.44824V59.1729C6.44826 59.4746 6.56787 59.7642 6.78125 59.9775C6.99463 60.1909 7.28417 60.3105 7.58594 60.3105C7.88769 60.3105 8.17723 60.1909 8.39062 59.9775C8.60401 59.7642 8.72361 59.4746 8.72363 59.1729V56.1387C8.72363 55.8369 8.60394 55.5474 8.39062 55.334C8.17722 55.1206 7.88774 55 7.58594 55H5.68945V53.1035C5.68938 52.8018 5.56978 52.5122 5.35645 52.2988C5.1431 52.0855 4.85346 51.9659 4.55176 51.9658C4.25008 51.9658 3.96045 52.0856 3.74707 52.2988C3.53373 52.5122 3.41414 52.8018 3.41406 53.1035V55H1.5166C1.215 55.0001 0.92618 55.1207 0.712891 55.334C0.499487 55.5474 0.378906 55.8369 0.378906 56.1387V62.207C0.378906 62.5088 0.499487 62.7983 0.712891 63.0117C0.926171 63.2249 1.21504 63.3446 1.5166 63.3447ZM25.793 57.2764C26.0947 57.2763 26.3843 57.1557 26.5977 56.9424C26.8109 56.729 26.9307 56.4394 26.9307 56.1377V53.1035C26.9307 52.8018 26.811 52.5122 26.5977 52.2988C26.3843 52.0855 26.0947 51.9659 25.793 51.9658C25.4912 51.9658 25.2017 52.0855 24.9883 52.2988C24.7749 52.5122 24.6553 52.8017 24.6553 53.1035V56.1377C24.6553 56.4395 24.7749 56.729 24.9883 56.9424C25.2017 57.1558 25.4912 57.2764 25.793 57.2764ZM74.3447 60.3105C74.6465 60.3105 74.936 60.19 75.1494 59.9766C75.3625 59.7633 75.4823 59.4743 75.4824 59.1729V54.2412H77.3789C77.6806 54.2412 77.9702 54.1215 78.1836 53.9082C78.397 53.6948 78.5166 53.4053 78.5166 53.1035C78.5166 52.8017 78.397 52.5122 78.1836 52.2988C77.9702 52.0855 77.6807 51.9658 77.3789 51.9658H74.3447C74.0429 51.9658 73.7534 52.0854 73.54 52.2988C73.3266 52.5122 73.207 52.8017 73.207 53.1035V55H71.3105C71.0089 55 70.7192 55.1198 70.5059 55.333C70.2925 55.5464 70.1719 55.836 70.1719 56.1377V59.1729C70.172 59.4744 70.2926 59.7633 70.5059 59.9766C70.7193 60.19 71.0087 60.3105 71.3105 60.3105H74.3447ZM32.6211 57.6553C33.0399 57.6551 33.3799 57.3153 33.3799 56.8965V55.3789C33.3797 54.9602 33.0398 54.6203 32.6211 54.6201H31.1035C30.6847 54.6201 30.3449 54.9601 30.3447 55.3789V56.8965C30.3448 57.3154 30.6846 57.6552 31.1035 57.6553H32.6211ZM23.5176 60.6895C23.9364 60.6892 24.2754 60.3495 24.2754 59.9307V58.4141C24.2754 57.9952 23.9364 57.6555 23.5176 57.6553H22C21.581 57.6553 21.2412 57.9951 21.2412 58.4141V59.9307C21.2412 60.3496 21.581 60.6895 22 60.6895H23.5176ZM25.793 69.4141C26.0947 69.414 26.3843 69.2944 26.5977 69.0811C26.811 68.8677 26.9306 68.5781 26.9307 68.2764V63.3447H28.8271C29.1289 63.3447 29.4184 63.2251 29.6318 63.0117C29.8452 62.7983 29.9648 62.5088 29.9648 62.207V59.1729C29.9648 58.8711 29.8452 58.5816 29.6318 58.3682C29.4184 58.1548 29.1289 58.0352 28.8271 58.0352C28.5254 58.0352 28.2358 58.1548 28.0225 58.3682C27.8092 58.5816 27.6895 58.8711 27.6895 59.1729V61.0693H25.793C25.4912 61.0693 25.2017 61.189 24.9883 61.4023C24.7749 61.6157 24.6553 61.9053 24.6553 62.207V68.2764C24.6554 68.5781 24.775 68.8677 24.9883 69.0811C25.2017 69.2943 25.4913 69.4141 25.793 69.4141ZM47.0342 63.3447C47.3359 63.3447 47.6255 63.225 47.8389 63.0117C48.0523 62.7983 48.1729 62.5088 48.1729 62.207V59.1729C48.1729 58.8711 48.0523 58.5816 47.8389 58.3682C47.6255 58.1549 47.3359 58.0352 47.0342 58.0352H40.9658C40.664 58.0352 40.3745 58.1548 40.1611 58.3682C39.9477 58.5816 39.8281 58.8711 39.8281 59.1729C39.8281 59.4746 39.9477 59.7642 40.1611 59.9775C40.3745 60.1909 40.6641 60.3105 40.9658 60.3105H45.8965V62.207C45.8965 62.5088 46.0171 62.7983 46.2305 63.0117C46.4437 63.2249 46.7326 63.3446 47.0342 63.3447ZM83.4482 63.3447C83.7499 63.3447 84.0396 63.2251 84.2529 63.0117C84.4662 62.7983 84.5859 62.5087 84.5859 62.207V59.1729C84.5859 58.8711 84.4662 58.5815 84.2529 58.3682C84.0396 58.1548 83.7499 58.0352 83.4482 58.0352H80.4131C80.1114 58.0353 79.8217 58.1549 79.6084 58.3682C79.3951 58.5815 79.2754 58.8712 79.2754 59.1729V61.0693H77.3789C77.0772 61.0694 76.7876 61.189 76.5742 61.4023C76.3609 61.6157 76.2413 61.9053 76.2412 62.207C76.2412 62.5088 76.3609 62.7983 76.5742 63.0117C76.7876 63.2251 77.0771 63.3447 77.3789 63.3447H83.4482ZM20.4824 63.7236C20.9014 63.7236 21.2412 63.3838 21.2412 62.9648V61.4482C21.2412 61.0293 20.9014 60.6895 20.4824 60.6895H18.9658C18.5468 60.6895 18.207 61.0293 18.207 61.4482V62.9648C18.207 63.3838 18.5468 63.7236 18.9658 63.7236H20.4824ZM35.6553 63.7236C36.0742 63.7236 36.4141 63.3838 36.4141 62.9648V61.4482C36.4141 61.0293 36.0742 60.6895 35.6553 60.6895H34.1377C33.7189 60.6896 33.3789 61.0294 33.3789 61.4482V62.9648C33.3789 63.3837 33.7189 63.7235 34.1377 63.7236H35.6553ZM53.8623 63.7236C54.2812 63.7235 54.6211 63.3838 54.6211 62.9648V61.4482C54.6211 61.0293 54.2812 60.6896 53.8623 60.6895H52.3447C51.9258 60.6895 51.5859 61.0293 51.5859 61.4482V62.9648C51.5859 63.3838 51.9258 63.7236 52.3447 63.7236H53.8623ZM31.8623 69.4141C32.164 69.414 32.4537 69.2944 32.667 69.0811C32.8803 68.8677 32.9999 68.5781 33 68.2764V65.2412C32.9999 64.9395 32.8803 64.6498 32.667 64.4365C32.4537 64.2232 32.164 64.1036 31.8623 64.1035C31.5607 64.1035 31.271 64.2233 31.0576 64.4365C30.8443 64.6498 30.7237 64.9395 30.7236 65.2412V68.2764C30.7237 68.5781 30.8443 68.8677 31.0576 69.0811C31.271 69.2943 31.5606 69.4141 31.8623 69.4141ZM40.9658 72.4482C41.2676 72.4482 41.5571 72.3286 41.7705 72.1152C41.9839 71.9019 42.1035 71.6123 42.1035 71.3105C42.1035 71.0088 41.9839 70.7193 41.7705 70.5059C41.5571 70.2925 41.2676 70.1729 40.9658 70.1729H39.0693V65.2412C39.0693 64.9395 38.9497 64.6499 38.7363 64.4365C38.523 64.2232 38.2333 64.1036 37.9316 64.1035C37.63 64.1035 37.3403 64.2233 37.127 64.4365C36.9136 64.6499 36.793 64.9395 36.793 65.2412V70.1729H34.8965C34.5948 70.173 34.3051 70.2925 34.0918 70.5059C33.8785 70.7192 33.7588 71.0089 33.7588 71.3105C33.7588 71.6122 33.8785 71.9019 34.0918 72.1152C34.3051 72.3285 34.5948 72.4481 34.8965 72.4482H40.9658ZM44 69.4141C44.3017 69.4141 44.5913 69.2943 44.8047 69.0811C45.018 68.8677 45.1376 68.5781 45.1377 68.2764V65.2412C45.1376 64.9395 45.018 64.6498 44.8047 64.4365C44.5913 64.2233 44.3017 64.1035 44 64.1035C43.6983 64.1035 43.4087 64.2232 43.1953 64.4365C42.982 64.6498 42.8624 64.9395 42.8623 65.2412V68.2764C42.8624 68.5781 42.982 68.8677 43.1953 69.0811C43.4087 69.2944 43.6983 69.414 44 69.4141ZM17.4482 88C18.4542 88 19.4195 87.6 20.1309 86.8887C20.8419 86.1774 21.2412 85.2128 21.2412 84.207V70.5518C21.2412 69.5458 20.8422 68.5805 20.1309 67.8691C19.4195 67.1578 18.4542 66.7588 17.4482 66.7588H3.79297C2.78721 66.7588 1.8226 67.1581 1.11133 67.8691C0.399983 68.5805 0 69.5458 0 70.5518V84.207C3.5815e-05 85.213 0.400015 86.1774 1.11133 86.8887C1.82264 87.6 2.78702 88 3.79297 88H17.4482ZM56.8965 69.793C57.3155 69.793 57.6553 69.4532 57.6553 69.0342V67.5176C57.6553 67.0986 57.3155 66.7588 56.8965 66.7588H55.3789C54.9601 66.759 54.6211 67.0987 54.6211 67.5176V69.0342C54.6211 69.453 54.9601 69.7928 55.3789 69.793H56.8965ZM84.207 88C85.213 88 86.1773 87.6 86.8887 86.8887C87.6 86.1774 88 85.213 88 84.207V70.5518C88 69.5458 87.6 68.5805 86.8887 67.8691C86.1774 67.1581 85.2128 66.7588 84.207 66.7588H70.5518C69.546 66.7588 68.5814 67.1581 67.8701 67.8691C67.1588 68.5805 66.7588 69.5458 66.7588 70.5518V84.207C66.7588 85.213 67.1588 86.1774 67.8701 86.8887C68.5814 87.6 69.5458 88 70.5518 88H84.207ZM3.79297 84.9658C3.59182 84.9658 3.39907 84.8854 3.25684 84.7432C3.1146 84.6009 3.03422 84.4082 3.03418 84.207V70.5518C3.03418 70.3506 3.11462 70.1579 3.25684 70.0156C3.39907 69.8734 3.59182 69.793 3.79297 69.793H17.4482C17.6494 69.793 17.8421 69.8734 17.9844 70.0156C18.1266 70.1579 18.207 70.3506 18.207 70.5518V84.207C18.207 84.4082 18.1266 84.6009 17.9844 84.7432C17.8421 84.8854 17.6494 84.9658 17.4482 84.9658H3.79297ZM70.5518 84.9658C70.3506 84.9658 70.1579 84.8854 70.0156 84.7432C69.8734 84.6009 69.793 84.4082 69.793 84.207V70.5518C69.793 70.3506 69.8734 70.1579 70.0156 70.0156C70.1579 69.8734 70.3506 69.793 70.5518 69.793H84.207C84.4082 69.793 84.6009 69.8734 84.7432 70.0156C84.8854 70.1579 84.9658 70.3506 84.9658 70.5518V84.207C84.9658 84.4082 84.8854 84.6009 84.7432 84.7432C84.6009 84.8854 84.4082 84.9658 84.207 84.9658H70.5518ZM40.9648 87.6211C41.2666 87.6211 41.5561 87.5005 41.7695 87.2871C41.9828 87.0738 42.1034 86.785 42.1035 86.4834C42.1035 86.1816 41.9829 85.8921 41.7695 85.6787C41.5561 85.4653 41.2666 85.3447 40.9648 85.3447H39.0684V83.4482C39.0683 83.1465 38.9487 82.8569 38.7354 82.6436C38.522 82.4302 38.2324 82.3105 37.9307 82.3105C37.6289 82.3106 37.3394 82.4302 37.126 82.6436C36.9126 82.8569 36.793 83.1465 36.793 83.4482V85.3447H33V83.4482C32.9999 83.1465 32.8794 82.8569 32.666 82.6436C32.4526 82.4303 32.163 82.3105 31.8613 82.3105H26.9307V78.5176H33.7578V80.4141C33.7578 80.7158 33.8784 81.0054 34.0918 81.2188C34.3052 81.432 34.5948 81.5518 34.8965 81.5518C35.1982 81.5517 35.4878 81.4321 35.7012 81.2188C35.9145 81.0054 36.0342 80.7158 36.0342 80.4141V78.5176H40.9648C41.2665 78.5176 41.5562 78.3977 41.7695 78.1846C41.9828 77.9713 42.1034 77.6815 42.1035 77.3799C42.1035 77.0781 41.9829 76.7886 41.7695 76.5752C41.5561 76.3618 41.2666 76.2412 40.9648 76.2412H33V74.3447C32.9999 74.043 32.8794 73.7534 32.666 73.54C32.4526 73.3268 32.163 73.207 31.8613 73.207H29.9648V71.3105C29.9648 71.0087 29.8452 70.7193 29.6318 70.5059C29.4184 70.2925 29.1289 70.1729 28.8271 70.1729C28.5254 70.1729 28.2358 70.2925 28.0225 70.5059C27.8091 70.7193 27.6895 71.0088 27.6895 71.3105V76.2412H25.793C25.4912 76.2412 25.2017 76.3618 24.9883 76.5752C24.7749 76.7886 24.6553 77.0781 24.6553 77.3799V83.4482C24.6553 83.75 24.7749 84.0395 24.9883 84.2529C25.2017 84.4663 25.4912 84.5859 25.793 84.5859H27.6895V86.4834C27.6896 86.7849 27.8094 87.0738 28.0225 87.2871C28.2358 87.5005 28.5254 87.6211 28.8271 87.6211H40.9648ZM14.4141 81.9307C14.6151 81.9306 14.808 81.8511 14.9502 81.709C15.0924 81.5668 15.1727 81.3739 15.1729 81.1729V73.5859C15.1728 73.3848 15.0924 73.192 14.9502 73.0498C14.808 72.9076 14.6152 72.8272 14.4141 72.8271H6.82715C6.62611 72.8273 6.43318 72.9076 6.29102 73.0498C6.14886 73.192 6.06941 73.3849 6.06934 73.5859V81.1729C6.06945 81.3739 6.14885 81.5668 6.29102 81.709C6.43318 81.8511 6.62611 81.9305 6.82715 81.9307H14.4141ZM44.7588 75.8623C45.1775 75.8621 45.5165 75.5223 45.5166 75.1035V73.5859C45.5165 73.1671 45.1776 72.8273 44.7588 72.8271H43.2412C42.8223 72.8271 42.4825 73.167 42.4824 73.5859V75.1035C42.4825 75.5224 42.8223 75.8623 43.2412 75.8623H44.7588ZM81.1729 81.9307C81.3739 81.9306 81.5668 81.8511 81.709 81.709C81.8511 81.5668 81.9305 81.3739 81.9307 81.1729V73.5859C81.9306 73.3849 81.8512 73.192 81.709 73.0498C81.5668 72.9076 81.3739 72.8272 81.1729 72.8271H73.5859C73.3849 72.8272 73.192 72.9076 73.0498 73.0498C72.9076 73.192 72.8282 73.3849 72.8281 73.5859V81.1729C72.8282 81.3739 72.9076 81.5668 73.0498 81.709C73.192 81.8511 73.3849 81.9306 73.5859 81.9307H81.1729ZM62.207 84.5859C62.5087 84.5859 62.7983 84.4662 63.0117 84.2529C63.225 84.0396 63.3446 83.7499 63.3447 83.4482V80.4131C63.3447 80.1114 63.2251 79.8217 63.0117 79.6084C62.7983 79.3951 62.5088 79.2754 62.207 79.2754C61.9053 79.2754 61.6157 79.3951 61.4023 79.6084C61.189 79.8217 61.0694 80.1114 61.0693 80.4131V83.4482C61.0694 83.7499 61.189 84.0396 61.4023 84.2529C61.6157 84.4662 61.9053 84.5859 62.207 84.5859ZM44.7588 84.9658C45.1776 84.9656 45.5166 84.6259 45.5166 84.207V82.6895C45.5165 82.2707 45.1775 81.9309 44.7588 81.9307H43.2412C42.8223 81.9307 42.4826 82.2706 42.4824 82.6895V84.207C42.4825 84.626 42.8223 84.9658 43.2412 84.9658H44.7588ZM53.1035 87.6211C53.4052 87.621 53.6949 87.5005 53.9082 87.2871C54.1213 87.0738 54.2411 86.7849 54.2412 86.4834V84.5859H56.1377C56.4395 84.5859 56.729 84.4663 56.9424 84.2529C57.1557 84.0395 57.2754 83.75 57.2754 83.4482C57.2753 83.1465 57.1557 82.8569 56.9424 82.6436C56.729 82.4302 56.4394 82.3105 56.1377 82.3105H53.1035C52.8018 82.3105 52.5122 82.4303 52.2988 82.6436C52.0855 82.8569 51.9659 83.1465 51.9658 83.4482V86.4834C51.9659 86.785 52.0856 87.0738 52.2988 87.2871C52.5122 87.5005 52.8017 87.6211 53.1035 87.6211Z" fill="white"/>
</svg>
