<svg width="88" height="88" viewBox="0 0 88 88" fill="none" xmlns="http://www.w3.org/2000/svg">
<path d="M17.4482 66.7588C18.4542 66.7588 19.4195 67.1588 20.1309 67.8701C20.8419 68.5814 21.2412 69.546 21.2412 70.5518V84.207C21.2412 85.2128 20.8419 86.1774 20.1309 86.8887C19.4195 87.6 18.4542 88 17.4482 88H3.79297C2.78702 88 1.82264 87.6 1.11133 86.8887C0.400022 86.1773 1.06231e-05 85.213 0 84.207V70.5518C1.5611e-05 69.5458 0.400021 68.5814 1.11133 67.8701C1.82264 67.1588 2.78702 66.7588 3.79297 66.7588H17.4482ZM26.5518 84.9658C26.9707 84.9658 27.3105 85.3056 27.3105 85.7246V87.2412C27.3105 87.6602 26.9707 88 26.5518 88H25.0352C24.6162 88 24.2764 87.6602 24.2764 87.2412V85.7246C24.2764 85.3056 24.6162 84.9658 25.0352 84.9658H26.5518ZM66 84.9658C66.4188 84.966 66.7588 85.3057 66.7588 85.7246V87.2412C66.7588 87.6601 66.4188 87.9998 66 88H64.4824C64.0635 88 63.7236 87.6602 63.7236 87.2412V85.7246C63.7236 85.3057 64.0635 84.9659 64.4824 84.9658H66ZM68.2754 33.7588C68.5772 33.7588 68.8667 33.8794 69.0801 34.0928C69.2935 34.3062 69.4141 34.5957 69.4141 34.8975V36.7939H71.3105C71.6122 36.794 71.9019 36.9136 72.1152 37.127C72.3285 37.3403 72.4482 37.6299 72.4482 37.9316V39.8281H74.3447C74.6465 39.8281 74.936 39.9478 75.1494 40.1611C75.3628 40.3745 75.4824 40.6641 75.4824 40.9658V42.8623H80.4141C80.7157 42.8624 81.0054 42.983 81.2188 43.1963C81.4319 43.4097 81.5518 43.6994 81.5518 44.001V51.9658H86.4824C86.7842 51.9658 87.0737 52.0864 87.2871 52.2998C87.5003 52.5131 87.62 52.802 87.6201 53.1035V56.1387C87.6201 56.4404 87.5005 56.73 87.2871 56.9434C87.0737 57.1566 86.7841 57.2764 86.4824 57.2764C86.1807 57.2763 85.8911 57.1567 85.6777 56.9434C85.4644 56.73 85.3448 56.4404 85.3447 56.1387V54.2422H80.4141C80.1123 54.2422 79.8228 54.1216 79.6094 53.9082C79.396 53.6948 79.2754 53.4053 79.2754 53.1035V51.207H77.3789C77.0772 51.207 76.7876 51.0874 76.5742 50.874C76.361 50.6606 76.2412 50.371 76.2412 50.0693C76.2413 49.7676 76.3609 49.478 76.5742 49.2646C76.7876 49.0513 77.0772 48.9317 77.3789 48.9316H79.2754V45.1387H75.4824V47.0352C75.4824 47.3369 75.3628 47.6265 75.1494 47.8398C74.936 48.0532 74.6465 48.1728 74.3447 48.1729H72.4482V51.9658H74.3447C74.6465 51.9658 74.936 52.0864 75.1494 52.2998C75.3625 52.5131 75.4823 52.802 75.4824 53.1035V55.001H77.3789C77.6807 55.001 77.9702 55.1206 78.1836 55.334C78.397 55.5474 78.5176 55.8369 78.5176 56.1387C78.5175 56.4404 78.397 56.73 78.1836 56.9434C77.9702 57.1566 77.6806 57.2764 77.3789 57.2764H75.4824V64.1035H77.3789C77.6807 64.1035 77.9702 64.2241 78.1836 64.4375C78.397 64.6509 78.5176 64.9404 78.5176 65.2422V67.1387H80.4141C80.7157 67.1388 81.0054 67.2584 81.2188 67.4717C81.432 67.6851 81.5517 67.9747 81.5518 68.2764C81.5518 68.5781 81.432 68.8677 81.2188 69.0811C81.0054 69.2944 80.7157 69.414 80.4141 69.4141H75.4824V73.207H77.3789C77.6807 73.207 77.9702 73.3276 78.1836 73.541C78.397 73.7544 78.5176 74.0439 78.5176 74.3457V76.2422H80.4141C80.7157 76.2423 81.0054 76.3619 81.2188 76.5752C81.432 76.7886 81.5518 77.0782 81.5518 77.3799V79.2764H83.4482C83.75 79.2764 84.0396 79.3961 84.2529 79.6094C84.4663 79.8227 84.5859 80.1124 84.5859 80.4141C84.5859 80.7158 84.4662 81.0054 84.2529 81.2188C84.0396 81.4321 83.75 81.5527 83.4482 81.5527H81.5518V86.4834C81.5517 86.7851 81.432 87.0747 81.2188 87.2881C81.0054 87.5014 80.7157 87.621 80.4141 87.6211H74.3447C74.043 87.6211 73.7534 87.5014 73.54 87.2881C73.3267 87.0747 73.2071 86.7852 73.207 86.4834C73.207 86.1816 73.3266 85.8921 73.54 85.6787C73.7534 85.4653 74.0429 85.3457 74.3447 85.3457H76.2412V81.5527H72.4482V83.4492C72.4481 83.7509 72.3285 84.0406 72.1152 84.2539C71.9019 84.4672 71.6122 84.5868 71.3105 84.5869H68.2754C67.9737 84.5868 67.684 84.4672 67.4707 84.2539C67.2574 84.0406 67.1378 83.7509 67.1377 83.4492V80.4141C67.1378 80.1124 67.2574 79.8227 67.4707 79.6094C67.684 79.396 67.9737 79.2765 68.2754 79.2764H70.1719V75.4834H66.3789V77.3799C66.3789 77.6817 66.2593 77.9712 66.0459 78.1846C65.8325 78.398 65.543 78.5176 65.2412 78.5176H63.3447V80.4141C63.3447 80.7157 63.2249 81.0054 63.0117 81.2188C62.7984 81.4321 62.5087 81.5527 62.207 81.5527H59.1719C58.8702 81.5526 58.5805 81.4321 58.3672 81.2188C58.154 81.0054 58.0342 80.7157 58.0342 80.4141C58.0343 80.1124 58.1539 79.8227 58.3672 79.6094C58.5805 79.3961 58.8702 79.2765 59.1719 79.2764H61.0684V75.4834H59.1719C58.8702 75.4833 58.5805 75.3637 58.3672 75.1504C58.1539 74.9371 58.0343 74.6474 58.0342 74.3457V72.4492H56.1377C55.8359 72.4492 55.5464 72.3286 55.333 72.1152C55.1197 71.9019 55 71.6122 55 71.3105V69.4141H53.1035C52.8018 69.4141 52.5122 69.2944 52.2988 69.0811C52.0854 68.8677 51.9658 68.5782 51.9658 68.2764C51.9658 67.9746 52.0854 67.6851 52.2988 67.4717C52.5122 67.2584 52.8018 67.1387 53.1035 67.1387H61.0684V62.207C61.0685 61.9054 61.189 61.6156 61.4023 61.4023C61.6157 61.1892 61.9054 61.0693 62.207 61.0693H64.1035V59.1729C64.1035 58.8711 64.2231 58.5815 64.4365 58.3682C64.6499 58.1548 64.9394 58.0352 65.2412 58.0352C65.543 58.0352 65.8325 58.1548 66.0459 58.3682C66.2593 58.5815 66.3789 58.8711 66.3789 59.1729V61.0693H73.207V54.2422H69.4141V56.1387C69.414 56.4404 69.2934 56.73 69.0801 56.9434C68.8667 57.1566 68.5771 57.2764 68.2754 57.2764C67.9737 57.2763 67.684 57.1567 67.4707 56.9434C67.2574 56.73 67.1377 56.4404 67.1377 56.1387V54.2422H60.3105V59.1729C60.3105 59.4746 60.19 59.7641 59.9766 59.9775C59.7632 60.1909 59.4736 60.3105 59.1719 60.3105C58.8702 60.3104 58.5805 60.1908 58.3672 59.9775C58.1539 59.7642 58.0342 59.4745 58.0342 59.1729V47.0352C58.0342 46.7335 58.1539 46.4438 58.3672 46.2305C58.5805 46.0172 58.8702 45.8976 59.1719 45.8975C59.4736 45.8975 59.7632 46.0171 59.9766 46.2305C60.19 46.4439 60.3105 46.7334 60.3105 47.0352V51.9658H70.1719V48.1729H65.2412C64.9394 48.1728 64.6499 48.0532 64.4365 47.8398C64.2231 47.6265 64.1035 47.3369 64.1035 47.0352C64.1035 46.7334 64.2232 46.4439 64.4365 46.2305C64.6499 46.0171 64.9394 45.8975 65.2412 45.8975H70.1719V42.1035H68.2754C67.9737 42.1034 67.684 41.9838 67.4707 41.7705C67.2575 41.5571 67.1377 41.2675 67.1377 40.9658V34.8975C67.1377 34.5958 67.2575 34.3061 67.4707 34.0928C67.684 33.8794 67.9737 33.7589 68.2754 33.7588ZM28.8271 51.9658C29.1289 51.9658 29.4184 52.0855 29.6318 52.2988C29.8452 52.5122 29.9658 52.8017 29.9658 53.1035V56.1377C29.9658 56.4395 29.8452 56.729 29.6318 56.9424C29.4184 57.1557 29.1289 57.2754 28.8271 57.2754H26.9307V61.0684H33.7588V59.1719C33.7589 58.8702 33.8785 58.5805 34.0918 58.3672C34.3052 58.1539 34.5948 58.0342 34.8965 58.0342H40.9658C41.2675 58.0343 41.5572 58.1539 41.7705 58.3672C41.9838 58.5805 42.1034 58.8702 42.1035 59.1719C42.1035 59.4735 41.9837 59.7632 41.7705 59.9766C41.5572 60.1899 41.2675 60.3104 40.9658 60.3105H36.0342V62.207C36.0341 62.5087 35.9145 62.7984 35.7012 63.0117C35.4878 63.225 35.1982 63.3447 34.8965 63.3447H33V67.1377H34.8965C35.1982 67.1377 35.4878 67.2574 35.7012 67.4707C35.9145 67.684 36.0341 67.9737 36.0342 68.2754V73.207H42.8623V71.3105C42.8623 71.0088 42.982 70.7193 43.1953 70.5059C43.4087 70.2925 43.6982 70.1719 44 70.1719C44.3018 70.1719 44.5913 70.2925 44.8047 70.5059C45.0179 70.7192 45.1377 71.0089 45.1377 71.3105V73.207H47.0342C47.3359 73.207 47.6255 73.3267 47.8389 73.54C48.0523 73.7534 48.1719 74.0429 48.1719 74.3447V76.2412H50.0693C50.3708 76.2413 50.6598 76.3612 50.873 76.5742C51.0864 76.7876 51.207 77.0772 51.207 77.3789V85.3447H53.1035C53.4052 85.3448 53.6948 85.4644 53.9082 85.6777C54.1216 85.8911 54.2412 86.1807 54.2412 86.4824C54.2412 86.7841 54.1215 87.0737 53.9082 87.2871C53.6948 87.5005 53.4052 87.6201 53.1035 87.6201H40.9658C40.6641 87.6201 40.3745 87.5004 40.1611 87.2871C39.9477 87.0737 39.8271 86.7842 39.8271 86.4824V84.5859H36.0342V86.4824C36.0342 86.7842 35.9145 87.0737 35.7012 87.2871C35.4878 87.5005 35.1983 87.6201 34.8965 87.6201H31.8623C31.5605 87.6201 31.271 87.5005 31.0576 87.2871C30.8442 87.0737 30.7236 86.7842 30.7236 86.4824V81.5518H28.8271C28.5255 81.5517 28.2358 81.432 28.0225 81.2188C27.8092 81.0054 27.6896 80.7157 27.6895 80.4141C27.6895 80.1124 27.8093 79.8227 28.0225 79.6094C28.2358 79.396 28.5255 79.2755 28.8271 79.2754H30.7236V77.3789C30.7237 77.0772 30.8443 76.7876 31.0576 76.5742C31.271 76.361 31.5607 76.2412 31.8623 76.2412H33.7588V72.4482H29.9658V74.3447C29.9658 74.6465 29.8452 74.936 29.6318 75.1494C29.4184 75.3627 29.1289 75.4824 28.8271 75.4824C28.5255 75.4823 28.2358 75.3627 28.0225 75.1494C27.8092 74.936 27.6895 74.6464 27.6895 74.3447V71.3105C27.6895 71.0089 27.8093 70.7192 28.0225 70.5059C28.2358 70.2925 28.5255 70.172 28.8271 70.1719H30.7236V63.3447H26.9307V65.2412C26.9307 65.543 26.8111 65.8325 26.5977 66.0459C26.3843 66.2593 26.0948 66.3789 25.793 66.3789C25.4912 66.3789 25.2017 66.2593 24.9883 66.0459C24.7749 65.8325 24.6553 65.543 24.6553 65.2412V63.3447H16.6895C16.3877 63.3447 16.0981 63.225 15.8848 63.0117C15.6714 62.7984 15.5518 62.5087 15.5518 62.207C15.5518 61.9053 15.6715 61.6157 15.8848 61.4023C16.0981 61.189 16.3877 61.0684 16.6895 61.0684H24.6553V56.1377C24.6553 55.8359 24.7749 55.5464 24.9883 55.333C25.2017 55.1196 25.4912 55 25.793 55H27.6895V53.1035C27.6895 52.8018 27.8092 52.5122 28.0225 52.2988C28.2358 52.0855 28.5255 51.9659 28.8271 51.9658ZM3.79297 69.793C3.59182 69.793 3.39907 69.8734 3.25684 70.0156C3.1146 70.1579 3.0342 70.3506 3.03418 70.5518V84.207C3.03419 84.4082 3.11461 84.6009 3.25684 84.7432C3.39907 84.8854 3.59182 84.9658 3.79297 84.9658H17.4482C17.6494 84.9658 17.8421 84.8854 17.9844 84.7432C18.1266 84.6009 18.207 84.4082 18.207 84.207V70.5518C18.207 70.3506 18.1266 70.1579 17.9844 70.0156C17.8421 69.8734 17.6494 69.793 17.4482 69.793H3.79297ZM87.2412 81.9316C87.6601 81.9316 87.9998 82.2706 88 82.6895V84.207C88 84.626 87.6602 84.9658 87.2412 84.9658H85.7246C85.3056 84.9658 84.9658 84.626 84.9658 84.207V82.6895C84.966 82.2706 85.3058 81.9316 85.7246 81.9316H87.2412ZM36.0342 77.3789C36.0342 77.6806 35.9145 77.9702 35.7012 78.1836C35.4878 78.397 35.1983 78.5176 34.8965 78.5176H33V82.3105H36.793V80.4141C36.793 80.1124 36.9128 79.8227 37.126 79.6094C37.3393 79.396 37.629 79.2755 37.9307 79.2754C38.2325 79.2754 38.5219 79.396 38.7354 79.6094C38.9487 79.8228 39.0693 80.1123 39.0693 80.4141V82.3105H45.8965V78.5176H44C43.6982 78.5176 43.4087 78.397 43.1953 78.1836C42.982 77.9702 42.8623 77.6807 42.8623 77.3789V75.4824H36.0342V77.3789ZM14.4141 72.8281C14.6151 72.8282 14.808 72.9076 14.9502 73.0498C15.0924 73.192 15.1728 73.3849 15.1729 73.5859V81.1729C15.1728 81.3739 15.0924 81.5668 14.9502 81.709C14.808 81.8512 14.6151 81.9306 14.4141 81.9307H6.82715C6.62611 81.9305 6.43318 81.8511 6.29102 81.709C6.14886 81.5668 6.06943 81.3739 6.06934 81.1729V73.5859C6.06943 73.3849 6.14886 73.192 6.29102 73.0498C6.43318 72.9076 6.62611 72.8282 6.82715 72.8281H14.4141ZM72.4482 79.2764H76.2412V75.4834H72.4482V79.2764ZM56.8965 75.8623C57.3155 75.8623 57.6553 76.2021 57.6553 76.6211V78.1387C57.655 78.5574 57.3153 78.8965 56.8965 78.8965H55.3789C54.9602 78.8963 54.6213 78.5573 54.6211 78.1387V76.6211C54.6211 76.2022 54.9601 75.8625 55.3789 75.8623H56.8965ZM86.4824 70.1719C86.7842 70.1719 87.0737 70.2925 87.2871 70.5059C87.5005 70.7193 87.6201 71.0088 87.6201 71.3105V77.3789C87.6201 77.6807 87.5005 77.9702 87.2871 78.1836C87.0737 78.397 86.7842 78.5166 86.4824 78.5166C86.1807 78.5165 85.8911 78.3969 85.6777 78.1836C85.4645 77.9702 85.3447 77.6806 85.3447 77.3789V71.3105C85.3447 71.0089 85.4645 70.7192 85.6777 70.5059C85.8911 70.2925 86.1807 70.1719 86.4824 70.1719ZM63.3447 73.207H73.207V63.3457H63.3447V73.207ZM50.8281 69.793C51.2469 69.7932 51.5859 70.1329 51.5859 70.5518V72.0693C51.5857 72.488 51.2468 72.8269 50.8281 72.8271H49.3105C48.8917 72.8271 48.5519 72.4881 48.5518 72.0693V70.5518C48.5518 70.1328 48.8916 69.793 49.3105 69.793H50.8281ZM69.0342 66.7588C69.4532 66.7588 69.793 67.0986 69.793 67.5176V69.0342C69.793 69.4532 69.4532 69.793 69.0342 69.793H67.5176C67.0986 69.793 66.7588 69.4532 66.7588 69.0342V67.5176C66.7588 67.0986 67.0986 66.7588 67.5176 66.7588H69.0342ZM47.0342 61.0693C47.3359 61.0693 47.6255 61.189 47.8389 61.4023C48.0523 61.6157 48.1729 61.9052 48.1729 62.207V68.2764C48.1727 68.578 48.0522 68.8678 47.8389 69.0811C47.6255 69.2942 47.3358 69.4141 47.0342 69.4141C46.7325 69.414 46.4428 69.2944 46.2295 69.0811C46.0162 68.8678 45.8966 68.578 45.8965 68.2764V66.3789H44C43.6982 66.3789 43.4087 66.2593 43.1953 66.0459C42.982 65.8325 42.8623 65.5429 42.8623 65.2412V62.207C42.8623 61.9053 42.982 61.6157 43.1953 61.4023C43.4087 61.189 43.6982 61.0694 44 61.0693H47.0342ZM53.8623 60.6895C54.2812 60.6896 54.6211 61.0293 54.6211 61.4482V62.9648C54.6211 63.3838 54.2812 63.7235 53.8623 63.7236H52.3447C51.9258 63.7236 51.5859 63.3838 51.5859 62.9648V61.4482C51.5859 61.0293 51.9258 60.6895 52.3447 60.6895H53.8623ZM16.6895 45.8965C16.9912 45.8965 17.2808 46.0162 17.4941 46.2295C17.7075 46.4428 17.8271 46.7325 17.8271 47.0342V48.9307H22.7588C23.0605 48.9308 23.3502 49.0513 23.5635 49.2646C23.7767 49.478 23.8965 49.7677 23.8965 50.0693V53.1035C23.8965 53.4052 23.7768 53.6948 23.5635 53.9082C23.3502 54.1215 23.0605 54.2411 22.7588 54.2412C22.4571 54.2412 22.1675 54.1215 21.9541 53.9082C21.7407 53.6948 21.6201 53.4053 21.6201 53.1035V51.207H14.793V55H19.7236C20.0253 55 20.3149 55.1198 20.5283 55.333C20.7417 55.5464 20.8622 55.836 20.8623 56.1377C20.8623 56.4395 20.7417 56.729 20.5283 56.9424C20.3149 57.1558 20.0254 57.2754 19.7236 57.2754H8.72363V59.1729C8.72352 59.4745 8.60393 59.7642 8.39062 59.9775C8.17725 60.1908 7.88761 60.3105 7.58594 60.3105C7.28425 60.3105 6.99462 60.1908 6.78125 59.9775C6.56795 59.7642 6.44836 59.4745 6.44824 59.1729V57.2754H2.65527V62.207C2.65524 62.5088 2.53466 62.7983 2.32129 63.0117C2.10791 63.2249 1.81826 63.3447 1.5166 63.3447C1.21512 63.3446 0.926155 63.2248 0.712891 63.0117C0.499516 62.7983 0.378939 62.5088 0.378906 62.207V53.1035C0.378906 52.8017 0.499487 52.5122 0.712891 52.2988C0.926164 52.0857 1.21508 51.9659 1.5166 51.9658H4.55176C4.85348 51.9659 5.14309 52.0855 5.35645 52.2988C5.56976 52.5122 5.68945 52.8018 5.68945 53.1035V55H12.5166V51.207H7.58594C7.28424 51.207 6.99462 51.0873 6.78125 50.874C6.56793 50.6607 6.44834 50.371 6.44824 50.0693V47.0342C6.44832 46.7325 6.56792 46.4428 6.78125 46.2295C6.99462 46.0162 7.28422 45.8965 7.58594 45.8965C7.88764 45.8965 8.17724 46.0162 8.39062 46.2295C8.60395 46.4428 8.72355 46.7325 8.72363 47.0342V48.9307H12.5166V47.0342C12.5167 46.7325 12.6373 46.4428 12.8506 46.2295C13.064 46.0163 13.3536 45.8965 13.6553 45.8965H16.6895ZM86.4824 61.0693C86.7841 61.0693 87.0737 61.189 87.2871 61.4023C87.5005 61.6157 87.6211 61.9052 87.6211 62.207C87.6211 62.5088 87.5005 62.7983 87.2871 63.0117C87.0737 63.225 86.7841 63.3447 86.4824 63.3447H80.4141C80.1123 63.3447 79.8228 63.225 79.6094 63.0117C79.396 62.7983 79.2764 62.5088 79.2764 62.207C79.2764 61.9052 79.396 61.6157 79.6094 61.4023C79.8228 61.189 80.1123 61.0693 80.4141 61.0693H86.4824ZM50.9033 33.3789C53.1337 33.3789 54.6211 34.8663 54.6211 37.0967V50.9033C54.6211 53.1337 53.1337 54.6211 50.9033 54.6211H37.0967C34.8663 54.6211 33.3789 53.1337 33.3789 50.9033V37.0967C33.3789 34.8663 34.8663 33.3789 37.0967 33.3789H50.9033ZM38.6895 37.6279C38.0524 37.628 37.628 38.0524 37.6279 38.6895V49.3105C37.628 49.9476 38.0524 50.372 38.6895 50.3721H49.3105C49.9477 50.372 50.372 49.9477 50.3721 49.3105V38.6895C50.372 38.0524 49.9476 37.628 49.3105 37.6279H38.6895ZM2.27539 45.5176C2.69437 45.5176 3.03418 45.8574 3.03418 46.2764V47.793C3.03418 48.2119 2.69437 48.5518 2.27539 48.5518H0.758789C0.339814 48.5518 0 48.2119 0 47.793V46.2764C0 45.8574 0.339814 45.5176 0.758789 45.5176H2.27539ZM87.2412 45.5176C87.6602 45.5176 88 45.8574 88 46.2764V47.793C88 48.2119 87.6602 48.5518 87.2412 48.5518H85.7246C85.3056 48.5518 84.9658 48.2119 84.9658 47.793V46.2764C84.9658 45.8574 85.3056 45.5176 85.7246 45.5176H87.2412ZM25.793 39.8281C26.0947 39.8281 26.3843 39.9478 26.5977 40.1611C26.811 40.3745 26.9306 40.6641 26.9307 40.9658V42.8623H28.8271C29.1288 42.8623 29.4185 42.9821 29.6318 43.1953C29.8451 43.4086 29.9647 43.6983 29.9648 44V47.0352C29.9648 47.3369 29.8452 47.6265 29.6318 47.8398C29.4185 48.0531 29.1288 48.1729 28.8271 48.1729H25.793C25.4913 48.1729 25.2017 48.0531 24.9883 47.8398C24.7749 47.6265 24.6553 47.3369 24.6553 47.0352V45.1387H19.7236C19.4219 45.1386 19.1323 45.018 18.9189 44.8047C18.7058 44.5913 18.5859 44.3016 18.5859 44C18.586 43.6983 18.7056 43.4086 18.9189 43.1953C19.1323 42.982 19.422 42.8624 19.7236 42.8623H21.6201V40.9658C21.6201 40.6641 21.7407 40.3745 21.9541 40.1611C22.1675 39.9479 22.4571 39.8281 22.7588 39.8281H25.793ZM46.124 41.3447C46.3895 41.3447 46.6553 41.6105 46.6553 41.876V46.124C46.6553 46.3895 46.3895 46.6553 46.124 46.6553H41.876C41.6105 46.6553 41.3447 46.3895 41.3447 46.124V41.876C41.3447 41.6105 41.6105 41.3447 41.876 41.3447H46.124ZM50.0693 6.44824C50.371 6.44834 50.6607 6.56891 50.874 6.78223C51.0872 6.9956 51.207 7.28529 51.207 7.58691V9.4834H56.1377C56.4394 9.4834 56.729 9.60306 56.9424 9.81641C57.1558 10.0298 57.2754 10.3193 57.2754 10.6211V12.5176H62.207C62.5088 12.5176 62.7984 12.6372 63.0117 12.8506C63.2251 13.0639 63.3447 13.3536 63.3447 13.6553V22.7588C63.3447 23.0605 63.225 23.3501 63.0117 23.5635C62.7983 23.7769 62.5088 23.8965 62.207 23.8965H60.3105V27.6904H64.1035V25.793C64.1036 25.4915 64.2234 25.2025 64.4365 24.9893C64.6499 24.7759 64.9395 24.6553 65.2412 24.6553H68.2754C68.5772 24.6553 68.8667 24.7759 69.0801 24.9893C69.2934 25.2025 69.4139 25.4913 69.4141 25.793C69.4141 26.0948 69.2935 26.3843 69.0801 26.5977C68.8667 26.8111 68.5772 26.9316 68.2754 26.9316H66.3789V31.8623C66.3789 32.1641 66.2593 32.4536 66.0459 32.667C65.8325 32.8804 65.543 33 65.2412 33H63.3447V44C63.3447 44.3017 63.225 44.5913 63.0117 44.8047C62.7983 45.0181 62.5088 45.1386 62.207 45.1387C61.9052 45.1387 61.6157 45.0181 61.4023 44.8047C61.189 44.5913 61.0693 44.3017 61.0693 44V42.1035H59.1729C58.8711 42.1035 58.5815 41.9838 58.3682 41.7705C58.1548 41.5571 58.0342 41.2676 58.0342 40.9658C58.0342 40.664 58.1548 40.3745 58.3682 40.1611C58.5815 39.9479 58.8712 39.8281 59.1729 39.8281H61.0693V29.9658H56.1377C55.836 29.9658 55.5464 29.8462 55.333 29.6328C55.1197 29.4195 55.0001 29.1298 55 28.8281C55 28.5264 55.1197 28.2368 55.333 28.0234C55.5464 27.8101 55.836 27.6905 56.1377 27.6904H58.0342V22.7588C58.0342 22.4571 58.1548 22.1675 58.3682 21.9541C58.5815 21.7409 58.8712 21.6211 59.1729 21.6211H61.0693V14.793H54.2412V16.6904C54.2411 16.9921 54.1215 17.2818 53.9082 17.4951C53.6948 17.7084 53.4052 17.8281 53.1035 17.8281H51.207V19.7246C51.207 20.0263 51.0873 20.3159 50.874 20.5293C50.6607 20.7426 50.371 20.8622 50.0693 20.8623C49.7677 20.8623 49.478 20.7425 49.2646 20.5293C49.0513 20.3159 48.9307 20.0264 48.9307 19.7246V11.7588H47.0342C46.7325 11.7587 46.4428 11.6391 46.2295 11.4258C46.0162 11.2124 45.8965 10.9228 45.8965 10.6211C45.8965 10.3194 46.0162 10.0298 46.2295 9.81641C46.4428 9.60308 46.7325 9.48348 47.0342 9.4834H48.9307V7.58691C48.9307 7.28512 49.0512 6.99563 49.2646 6.78223C49.4781 6.56882 49.7675 6.44824 50.0693 6.44824ZM19.7246 30.7236C20.0263 30.7237 20.316 30.8443 20.5293 31.0576C20.7425 31.271 20.8623 31.5607 20.8623 31.8623C20.8622 32.164 20.7426 32.4537 20.5293 32.667C20.316 32.8803 20.0263 32.9999 19.7246 33H17.8271V36.793H19.7246C20.0263 36.7931 20.316 36.9127 20.5293 37.126C20.7426 37.3393 20.8622 37.629 20.8623 37.9307C20.8623 38.2323 20.7425 38.522 20.5293 38.7354C20.316 38.9487 20.0263 39.0692 19.7246 39.0693H17.8271V40.9658C17.8271 41.2675 17.7075 41.5572 17.4941 41.7705C17.2808 41.9837 16.9911 42.1035 16.6895 42.1035H11.7588V44C11.7588 44.3017 11.6391 44.5913 11.4258 44.8047C11.2125 45.018 10.9228 45.1376 10.6211 45.1377C10.3194 45.1377 10.0298 45.018 9.81641 44.8047C9.60302 44.5913 9.48244 44.3018 9.48242 44V40.9658C9.48242 40.664 9.603 40.3745 9.81641 40.1611C10.0298 39.9477 10.3193 39.8271 10.6211 39.8271H15.5518V33H13.6553C13.3536 33 13.064 32.8803 12.8506 32.667C12.6373 32.4537 12.5177 32.164 12.5176 31.8623C12.5176 31.5606 12.6373 31.271 12.8506 31.0576C13.064 30.8442 13.3535 30.7236 13.6553 30.7236H19.7246ZM86.4824 36.7939C86.7842 36.7939 87.0737 36.9136 87.2871 37.127C87.5005 37.3404 87.6211 37.6298 87.6211 37.9316V40.9658C87.6211 41.2676 87.5005 41.5571 87.2871 41.7705C87.0737 41.9839 86.7842 42.1035 86.4824 42.1035H83.4482C83.1464 42.1035 82.857 41.9839 82.6436 41.7705C82.4302 41.5571 82.3105 41.2676 82.3105 40.9658C82.3106 40.6641 82.4302 40.3745 82.6436 40.1611C82.8569 39.9478 83.1465 39.8281 83.4482 39.8281H85.3447V37.9316C85.3447 37.6299 85.4645 37.3403 85.6777 37.127C85.8911 36.9136 86.1807 36.794 86.4824 36.7939ZM2.27539 36.4141C2.69437 36.4141 3.03418 36.7539 3.03418 37.1729V38.6895C3.03418 39.1084 2.69437 39.4482 2.27539 39.4482H0.758789C0.339814 39.4482 0 39.1084 0 38.6895V37.1729C0 36.7539 0.339814 36.4141 0.758789 36.4141H2.27539ZM8.34473 36.4141C8.76368 36.4141 9.10352 36.7539 9.10352 37.1729V38.6895C9.10352 39.1084 8.76368 39.4482 8.34473 39.4482H6.82715C6.4083 39.4481 6.06836 39.1083 6.06836 38.6895V37.1729C6.06836 36.754 6.4083 36.4142 6.82715 36.4141H8.34473ZM29.5859 36.4141C30.0049 36.4141 30.3447 36.7539 30.3447 37.1729V38.6895C30.3447 39.1084 30.0049 39.4482 29.5859 39.4482H28.0693C27.6504 39.4482 27.3105 39.1084 27.3105 38.6895V37.1729C27.3105 36.7539 27.6504 36.4141 28.0693 36.4141H29.5859ZM1.5166 24.6553C1.81834 24.6553 2.1079 24.775 2.32129 24.9883C2.53469 25.2017 2.65527 25.4912 2.65527 25.793V30.7236H6.44824V28.8271C6.44826 28.5254 6.56787 28.2358 6.78125 28.0225C6.99463 27.8091 7.28417 27.6895 7.58594 27.6895C7.88769 27.6895 8.17723 27.8091 8.39062 28.0225C8.60401 28.2358 8.72361 28.5254 8.72363 28.8271V31.8613C8.72363 32.1631 8.60394 32.4526 8.39062 32.666C8.17722 32.8794 7.88774 33 7.58594 33H5.68945V34.8965C5.68938 35.1982 5.56978 35.4878 5.35645 35.7012C5.1431 35.9145 4.85346 36.0341 4.55176 36.0342C4.25008 36.0342 3.96045 35.9144 3.74707 35.7012C3.53373 35.4878 3.41414 35.1982 3.41406 34.8965V33H1.5166C1.215 32.9999 0.92618 32.8793 0.712891 32.666C0.499487 32.4526 0.378906 32.1631 0.378906 31.8613V25.793C0.378906 25.4912 0.499487 25.2017 0.712891 24.9883C0.926171 24.7751 1.21504 24.6554 1.5166 24.6553ZM25.793 30.7236C26.0947 30.7237 26.3843 30.8443 26.5977 31.0576C26.8109 31.271 26.9307 31.5606 26.9307 31.8623V34.8965C26.9307 35.1982 26.811 35.4878 26.5977 35.7012C26.3843 35.9145 26.0947 36.0341 25.793 36.0342C25.4912 36.0342 25.2017 35.9145 24.9883 35.7012C24.7749 35.4878 24.6553 35.1983 24.6553 34.8965V31.8623C24.6553 31.5605 24.7749 31.271 24.9883 31.0576C25.2017 30.8442 25.4912 30.7236 25.793 30.7236ZM74.3447 27.6895C74.6465 27.6895 74.936 27.81 75.1494 28.0234C75.3625 28.2367 75.4823 28.5257 75.4824 28.8271V33.7588H77.3789C77.6806 33.7588 77.9702 33.8785 78.1836 34.0918C78.397 34.3052 78.5166 34.5947 78.5166 34.8965C78.5166 35.1983 78.397 35.4878 78.1836 35.7012C77.9702 35.9145 77.6807 36.0342 77.3789 36.0342H74.3447C74.0429 36.0342 73.7534 35.9146 73.54 35.7012C73.3266 35.4878 73.207 35.1983 73.207 34.8965V33H71.3105C71.0089 33 70.7192 32.8802 70.5059 32.667C70.2925 32.4536 70.1719 32.164 70.1719 31.8623V28.8271C70.172 28.5256 70.2926 28.2367 70.5059 28.0234C70.7193 27.81 71.0087 27.6895 71.3105 27.6895H74.3447ZM32.6211 30.3447C33.0399 30.3449 33.3799 30.6847 33.3799 31.1035V32.6211C33.3797 33.0398 33.0398 33.3797 32.6211 33.3799H31.1035C30.6847 33.3799 30.3449 33.0399 30.3447 32.6211V31.1035C30.3448 30.6846 30.6846 30.3448 31.1035 30.3447H32.6211ZM23.5176 27.3105C23.9364 27.3108 24.2754 27.6505 24.2754 28.0693V29.5859C24.2754 30.0048 23.9364 30.3445 23.5176 30.3447H22C21.581 30.3447 21.2412 30.0049 21.2412 29.5859V28.0693C21.2412 27.6504 21.581 27.3105 22 27.3105H23.5176ZM25.793 18.5859C26.0947 18.586 26.3843 18.7056 26.5977 18.9189C26.811 19.1323 26.9306 19.4219 26.9307 19.7236V24.6553H28.8271C29.1289 24.6553 29.4184 24.7749 29.6318 24.9883C29.8452 25.2017 29.9648 25.4912 29.9648 25.793V28.8271C29.9648 29.1289 29.8452 29.4184 29.6318 29.6318C29.4184 29.8452 29.1289 29.9648 28.8271 29.9648C28.5254 29.9648 28.2358 29.8452 28.0225 29.6318C27.8092 29.4184 27.6895 29.1289 27.6895 28.8271V26.9307H25.793C25.4912 26.9307 25.2017 26.811 24.9883 26.5977C24.7749 26.3843 24.6553 26.0947 24.6553 25.793V19.7236C24.6554 19.4219 24.775 19.1323 24.9883 18.9189C25.2017 18.7057 25.4913 18.5859 25.793 18.5859ZM47.0342 24.6553C47.3359 24.6553 47.6255 24.775 47.8389 24.9883C48.0523 25.2017 48.1729 25.4912 48.1729 25.793V28.8271C48.1729 29.1289 48.0523 29.4184 47.8389 29.6318C47.6255 29.8451 47.3359 29.9648 47.0342 29.9648H40.9658C40.664 29.9648 40.3745 29.8452 40.1611 29.6318C39.9477 29.4184 39.8281 29.1289 39.8281 28.8271C39.8281 28.5254 39.9477 28.2358 40.1611 28.0225C40.3745 27.8091 40.6641 27.6895 40.9658 27.6895H45.8965V25.793C45.8965 25.4912 46.0171 25.2017 46.2305 24.9883C46.4437 24.7751 46.7326 24.6554 47.0342 24.6553ZM83.4482 24.6553C83.7499 24.6553 84.0396 24.7749 84.2529 24.9883C84.4662 25.2017 84.5859 25.4913 84.5859 25.793V28.8271C84.5859 29.1289 84.4662 29.4185 84.2529 29.6318C84.0396 29.8452 83.7499 29.9648 83.4482 29.9648H80.4131C80.1114 29.9647 79.8217 29.8451 79.6084 29.6318C79.3951 29.4185 79.2754 29.1288 79.2754 28.8271V26.9307H77.3789C77.0772 26.9306 76.7876 26.811 76.5742 26.5977C76.3609 26.3843 76.2413 26.0947 76.2412 25.793C76.2412 25.4912 76.3609 25.2017 76.5742 24.9883C76.7876 24.7749 77.0771 24.6553 77.3789 24.6553H83.4482ZM20.4824 24.2764C20.9014 24.2764 21.2412 24.6162 21.2412 25.0352V26.5518C21.2412 26.9707 20.9014 27.3105 20.4824 27.3105H18.9658C18.5468 27.3105 18.207 26.9707 18.207 26.5518V25.0352C18.207 24.6162 18.5468 24.2764 18.9658 24.2764H20.4824ZM35.6553 24.2764C36.0742 24.2764 36.4141 24.6162 36.4141 25.0352V26.5518C36.4141 26.9707 36.0742 27.3105 35.6553 27.3105H34.1377C33.7189 27.3104 33.3789 26.9706 33.3789 26.5518V25.0352C33.3789 24.6163 33.7189 24.2765 34.1377 24.2764H35.6553ZM53.8623 24.2764C54.2812 24.2765 54.6211 24.6162 54.6211 25.0352V26.5518C54.6211 26.9707 54.2812 27.3104 53.8623 27.3105H52.3447C51.9258 27.3105 51.5859 26.9707 51.5859 26.5518V25.0352C51.5859 24.6162 51.9258 24.2764 52.3447 24.2764H53.8623ZM31.8623 18.5859C32.164 18.586 32.4537 18.7056 32.667 18.9189C32.8803 19.1323 32.9999 19.4219 33 19.7236V22.7588C32.9999 23.0605 32.8803 23.3502 32.667 23.5635C32.4537 23.7768 32.164 23.8964 31.8623 23.8965C31.5607 23.8965 31.271 23.7767 31.0576 23.5635C30.8443 23.3502 30.7237 23.0605 30.7236 22.7588V19.7236C30.7237 19.4219 30.8443 19.1323 31.0576 18.9189C31.271 18.7057 31.5606 18.5859 31.8623 18.5859ZM40.9658 15.5518C41.2676 15.5518 41.5571 15.6714 41.7705 15.8848C41.9839 16.0981 42.1035 16.3877 42.1035 16.6895C42.1035 16.9912 41.9839 17.2807 41.7705 17.4941C41.5571 17.7075 41.2676 17.8271 40.9658 17.8271H39.0693V22.7588C39.0693 23.0605 38.9497 23.3501 38.7363 23.5635C38.523 23.7768 38.2333 23.8964 37.9316 23.8965C37.63 23.8965 37.3403 23.7767 37.127 23.5635C36.9136 23.3501 36.793 23.0605 36.793 22.7588V17.8271H34.8965C34.5948 17.827 34.3051 17.7075 34.0918 17.4941C33.8785 17.2808 33.7588 16.9911 33.7588 16.6895C33.7588 16.3878 33.8785 16.0981 34.0918 15.8848C34.3051 15.6715 34.5948 15.5519 34.8965 15.5518H40.9658ZM44 18.5859C44.3017 18.5859 44.5913 18.7057 44.8047 18.9189C45.018 19.1323 45.1376 19.4219 45.1377 19.7236V22.7588C45.1376 23.0605 45.018 23.3502 44.8047 23.5635C44.5913 23.7767 44.3017 23.8965 44 23.8965C43.6983 23.8965 43.4087 23.7768 43.1953 23.5635C42.982 23.3502 42.8624 23.0605 42.8623 22.7588V19.7236C42.8624 19.4219 42.982 19.1323 43.1953 18.9189C43.4087 18.7056 43.6983 18.586 44 18.5859ZM17.4482 0C18.4542 0 19.4195 0.399983 20.1309 1.11133C20.8419 1.8226 21.2412 2.78721 21.2412 3.79297V17.4482C21.2412 18.4542 20.8422 19.4195 20.1309 20.1309C19.4195 20.8422 18.4542 21.2412 17.4482 21.2412H3.79297C2.78721 21.2412 1.8226 20.8419 1.11133 20.1309C0.399983 19.4195 0 18.4542 0 17.4482V3.79297C3.5815e-05 2.78702 0.400015 1.82264 1.11133 1.11133C1.82264 0.400015 2.78702 3.58151e-05 3.79297 0H17.4482ZM56.8965 18.207C57.3155 18.207 57.6553 18.5468 57.6553 18.9658V20.4824C57.6553 20.9014 57.3155 21.2412 56.8965 21.2412H55.3789C54.9601 21.241 54.6211 20.9013 54.6211 20.4824V18.9658C54.6211 18.547 54.9601 18.2072 55.3789 18.207H56.8965ZM84.207 0C85.213 1.06231e-05 86.1773 0.400022 86.8887 1.11133C87.6 1.82264 88 2.78702 88 3.79297V17.4482C88 18.4542 87.6 19.4195 86.8887 20.1309C86.1774 20.8419 85.2128 21.2412 84.207 21.2412H70.5518C69.546 21.2412 68.5814 20.8419 67.8701 20.1309C67.1588 19.4195 66.7588 18.4542 66.7588 17.4482V3.79297C66.7588 2.78702 67.1588 1.82264 67.8701 1.11133C68.5814 0.400021 69.5458 1.56111e-05 70.5518 0H84.207ZM3.79297 3.03418C3.59182 3.03422 3.39907 3.1146 3.25684 3.25684C3.1146 3.39907 3.03422 3.59182 3.03418 3.79297V17.4482C3.03418 17.6494 3.11462 17.8421 3.25684 17.9844C3.39907 18.1266 3.59182 18.207 3.79297 18.207H17.4482C17.6494 18.207 17.8421 18.1266 17.9844 17.9844C18.1266 17.8421 18.207 17.6494 18.207 17.4482V3.79297C18.207 3.59182 18.1266 3.39907 17.9844 3.25684C17.8421 3.11462 17.6494 3.03418 17.4482 3.03418H3.79297ZM70.5518 3.03418C70.3506 3.0342 70.1579 3.1146 70.0156 3.25684C69.8734 3.39907 69.793 3.59182 69.793 3.79297V17.4482C69.793 17.6494 69.8734 17.8421 70.0156 17.9844C70.1579 18.1266 70.3506 18.207 70.5518 18.207H84.207C84.4082 18.207 84.6009 18.1266 84.7432 17.9844C84.8854 17.8421 84.9658 17.6494 84.9658 17.4482V3.79297C84.9658 3.59182 84.8854 3.39907 84.7432 3.25684C84.6009 3.11461 84.4082 3.03419 84.207 3.03418H70.5518ZM40.9648 0.378906C41.2666 0.378906 41.5561 0.499487 41.7695 0.712891C41.9828 0.926177 42.1034 1.21501 42.1035 1.5166C42.1035 1.81837 41.9829 2.10789 41.7695 2.32129C41.5561 2.53469 41.2666 2.65527 40.9648 2.65527H39.0684V4.55176C39.0683 4.85348 38.9487 5.14309 38.7354 5.35645C38.522 5.56978 38.2324 5.68945 37.9307 5.68945C37.6289 5.68945 37.3394 5.56978 37.126 5.35645C36.9126 5.14309 36.793 4.85348 36.793 4.55176V2.65527H33V4.55176C32.9999 4.85348 32.8794 5.14309 32.666 5.35645C32.4526 5.56966 32.163 5.68945 31.8613 5.68945H26.9307V9.48242H33.7578V7.58594C33.7578 7.28417 33.8784 6.99463 34.0918 6.78125C34.3052 6.56796 34.5948 6.44824 34.8965 6.44824C35.1982 6.44832 35.4878 6.56791 35.7012 6.78125C35.9145 6.99462 36.0342 7.28422 36.0342 7.58594V9.48242H40.9648C41.2665 9.48242 41.5562 9.60225 41.7695 9.81543C41.9828 10.0287 42.1034 10.3185 42.1035 10.6201C42.1035 10.9219 41.9829 11.2114 41.7695 11.4248C41.5561 11.6382 41.2666 11.7588 40.9648 11.7588H33V13.6553C32.9999 13.957 32.8794 14.2466 32.666 14.46C32.4526 14.6732 32.163 14.793 31.8613 14.793H29.9648V16.6895C29.9648 16.9913 29.8452 17.2807 29.6318 17.4941C29.4184 17.7075 29.1289 17.8271 28.8271 17.8271C28.5254 17.8271 28.2358 17.7075 28.0225 17.4941C27.8091 17.2807 27.6895 16.9912 27.6895 16.6895V11.7588H25.793C25.4912 11.7588 25.2017 11.6382 24.9883 11.4248C24.7749 11.2114 24.6553 10.9219 24.6553 10.6201V4.55176C24.6553 4.24996 24.7749 3.96047 24.9883 3.74707C25.2017 3.53367 25.4912 3.41406 25.793 3.41406H27.6895V1.5166C27.6896 1.21511 27.8094 0.926157 28.0225 0.712891C28.2358 0.499507 28.5254 0.378929 28.8271 0.378906H40.9648ZM14.4141 6.06934C14.6151 6.06941 14.808 6.14886 14.9502 6.29102C15.0924 6.43318 15.1727 6.62611 15.1729 6.82715V14.4141C15.1728 14.6152 15.0924 14.808 14.9502 14.9502C14.808 15.0924 14.6152 15.1728 14.4141 15.1729H6.82715C6.62611 15.1727 6.43318 15.0924 6.29102 14.9502C6.14886 14.808 6.06941 14.6151 6.06934 14.4141V6.82715C6.06945 6.62611 6.14885 6.43318 6.29102 6.29102C6.43318 6.14885 6.62611 6.06945 6.82715 6.06934H14.4141ZM44.7588 12.1377C45.1775 12.1379 45.5165 12.4777 45.5166 12.8965V14.4141C45.5165 14.8329 45.1776 15.1727 44.7588 15.1729H43.2412C42.8223 15.1729 42.4825 14.833 42.4824 14.4141V12.8965C42.4825 12.4776 42.8223 12.1377 43.2412 12.1377H44.7588ZM81.1729 6.06934C81.3739 6.06943 81.5668 6.14886 81.709 6.29102C81.8511 6.43318 81.9305 6.62611 81.9307 6.82715V14.4141C81.9306 14.6151 81.8512 14.808 81.709 14.9502C81.5668 15.0924 81.3739 15.1728 81.1729 15.1729H73.5859C73.3849 15.1728 73.192 15.0924 73.0498 14.9502C72.9076 14.808 72.8282 14.6151 72.8281 14.4141V6.82715C72.8282 6.62611 72.9076 6.43318 73.0498 6.29102C73.192 6.14886 73.3849 6.06943 73.5859 6.06934H81.1729ZM62.207 3.41406C62.5087 3.41408 62.7983 3.53378 63.0117 3.74707C63.225 3.96038 63.3446 4.2501 63.3447 4.55176V7.58691C63.3447 7.88861 63.2251 8.17826 63.0117 8.3916C62.7983 8.60492 62.5088 8.72459 62.207 8.72461C61.9053 8.72461 61.6157 8.6049 61.4023 8.3916C61.189 8.17826 61.0694 7.88861 61.0693 7.58691V4.55176C61.0694 4.2501 61.189 3.96038 61.4023 3.74707C61.6157 3.53381 61.9053 3.41406 62.207 3.41406ZM44.7588 3.03418C45.1776 3.03437 45.5166 3.37414 45.5166 3.79297V5.31055C45.5165 5.72927 45.1775 6.06914 44.7588 6.06934H43.2412C42.8223 6.06934 42.4826 5.72939 42.4824 5.31055V3.79297C42.4825 3.37402 42.8223 3.03418 43.2412 3.03418H44.7588ZM53.1035 0.378906C53.4052 0.378963 53.6949 0.499538 53.9082 0.712891C54.1213 0.926151 54.2411 1.21514 54.2412 1.5166V3.41406H56.1377C56.4395 3.41406 56.729 3.53367 56.9424 3.74707C57.1557 3.96047 57.2754 4.24999 57.2754 4.55176C57.2753 4.85348 57.1557 5.14309 56.9424 5.35645C56.729 5.56975 56.4394 5.68945 56.1377 5.68945H53.1035C52.8018 5.68945 52.5122 5.56971 52.2988 5.35645C52.0855 5.14309 51.9659 4.85348 51.9658 4.55176V1.5166C51.9659 1.21504 52.0856 0.926171 52.2988 0.712891C52.5122 0.499487 52.8017 0.378906 53.1035 0.378906Z" fill="white"/>
</svg>
